<svg width="276" height="196" viewBox="0 0 276 196" fill="none" xmlns="http://www.w3.org/2000/svg">
<rect width="276" height="196" rx="23" fill="#182336"/>
<path d="M41.376 161.04C39.072 161.04 37.152 160.272 35.616 158.736C34.08 157.2 33.312 155.323 33.312 153.104V55.696C33.312 53.392 34.08 51.5147 35.616 50.064C37.152 48.528 39.072 47.76 41.376 47.76H59.808C62.1973 47.76 64.0747 48.4427 65.44 49.808C66.8053 51.1733 67.488 52.88 67.488 54.928C67.488 56.976 66.8053 58.6827 65.44 60.048C64.0747 61.4133 62.1973 62.096 59.808 62.096H52.64V146.704H59.808C62.1973 146.704 64.0747 147.387 65.44 148.752C66.8053 150.117 67.488 151.824 67.488 153.872C67.488 155.92 66.8053 157.627 65.44 158.992C64.0747 160.357 62.1973 161.04 59.808 161.04H41.376ZM216.445 161.04C214.226 161.04 212.392 160.357 210.941 158.992C209.576 157.627 208.893 155.92 208.893 153.872C208.893 151.824 209.576 150.117 210.941 148.752C212.392 147.387 214.226 146.704 216.445 146.704H223.741V62.096H216.445C214.226 62.096 212.392 61.4133 210.941 60.048C209.576 58.6827 208.893 56.976 208.893 54.928C208.893 52.88 209.576 51.1733 210.941 49.808C212.392 48.4427 214.226 47.76 216.445 47.76H235.005C237.309 47.76 239.229 48.528 240.765 50.064C242.301 51.5147 243.069 53.392 243.069 55.696V153.104C243.069 155.323 242.301 157.2 240.765 158.736C239.229 160.272 237.309 161.04 235.005 161.04H216.445Z" fill="#EF8203"/>
<path d="M82.17 138C80.058 138 78.426 137.456 77.274 136.368C76.186 135.216 75.642 133.584 75.642 131.472V76.848C75.642 74.736 76.186 73.136 77.274 72.048C78.426 70.896 80.058 70.32 82.17 70.32H100.794C112.122 70.32 120.858 73.232 127.002 79.056C133.21 84.88 136.314 93.232 136.314 104.112C136.314 109.552 135.514 114.384 133.914 118.608C132.378 122.768 130.074 126.288 127.002 129.168C123.994 132.048 120.282 134.256 115.866 135.792C111.514 137.264 106.49 138 100.794 138H82.17ZM87.93 127.824H100.026C103.994 127.824 107.418 127.344 110.298 126.384C113.242 125.36 115.674 123.888 117.594 121.968C119.578 119.984 121.05 117.52 122.01 114.576C122.97 111.568 123.45 108.08 123.45 104.112C123.45 96.176 121.498 90.256 117.594 86.352C113.69 82.448 107.834 80.496 100.026 80.496H87.93V127.824ZM173.96 138.768C172.232 138.768 170.792 138.384 169.64 137.616C168.552 136.784 167.656 135.568 166.952 133.968L141.896 77.712C141.192 76.112 141 74.704 141.32 73.488C141.64 72.272 142.312 71.312 143.336 70.608C144.36 69.904 145.576 69.552 146.984 69.552C148.84 69.552 150.216 69.968 151.112 70.8C152.072 71.568 152.872 72.752 153.512 74.352L176.264 127.056H172.136L194.792 74.256C195.496 72.72 196.328 71.568 197.288 70.8C198.248 69.968 199.592 69.552 201.32 69.552C202.728 69.552 203.88 69.904 204.776 70.608C205.736 71.312 206.344 72.272 206.6 73.488C206.856 74.704 206.632 76.112 205.928 77.712L180.872 133.968C180.168 135.568 179.272 136.784 178.184 137.616C177.16 138.384 175.752 138.768 173.96 138.768Z" fill="white"/>
</svg>
